<?xml version="1.0" encoding="utf-8"?>
<!-- Generator: Adobe Illustrator 25.0.0, SVG Export Plug-In . SVG Version: 6.00 Build 0)  -->
<svg version="1.1" id="Layer_1" xmlns="http://www.w3.org/2000/svg" xmlns:xlink="http://www.w3.org/1999/xlink" x="0px" y="0px"
	 viewBox="0 0 918.39 993.1" style="enable-background:new 0 0 918.39 993.1;" xml:space="preserve">
<style type="text/css">
	.st0{fill:none;stroke:url(#SVGID_1_);stroke-width:4;stroke-miterlimit:10;}
	.st1{fill:none;stroke:url(#SVGID_2_);stroke-width:4;stroke-miterlimit:10;}
	.st2{fill:none;stroke:url(#SVGID_3_);stroke-width:4;stroke-miterlimit:10;}
	.st3{fill:none;stroke:url(#SVGID_4_);stroke-width:4;stroke-miterlimit:10;}
	.st4{fill:none;stroke:url(#SVGID_5_);stroke-width:4;stroke-miterlimit:10;}
	.st5{fill:none;stroke:url(#SVGID_6_);stroke-width:4;stroke-miterlimit:10;}
	.st6{fill:none;stroke:url(#SVGID_7_);stroke-width:4;stroke-miterlimit:10;}
	.st7{fill:none;stroke:url(#SVGID_8_);stroke-width:4;stroke-miterlimit:10;}
	.st8{fill:none;stroke:url(#SVGID_9_);stroke-width:4;stroke-miterlimit:10;}
	.st9{fill:none;stroke:url(#SVGID_10_);stroke-width:4;stroke-miterlimit:10;}
	.st10{fill:none;stroke:url(#SVGID_11_);stroke-width:4;stroke-miterlimit:10;}
	.st11{fill:none;stroke:url(#SVGID_12_);stroke-width:4;stroke-miterlimit:10;}
	.st12{fill:none;stroke:url(#SVGID_13_);stroke-width:4;stroke-miterlimit:10;}
	.st13{fill:none;stroke:url(#SVGID_14_);stroke-width:4;stroke-miterlimit:10;}
	.st14{fill:none;stroke:url(#SVGID_15_);stroke-width:4;stroke-miterlimit:10;}
	.st15{fill:none;stroke:url(#SVGID_16_);stroke-width:4;stroke-miterlimit:10;}
	.st16{fill:none;stroke:url(#SVGID_17_);stroke-width:4;stroke-miterlimit:10;}
	.st17{fill:none;stroke:url(#SVGID_18_);stroke-width:4;stroke-miterlimit:10;}
	.st18{fill:none;stroke:url(#SVGID_19_);stroke-width:4;stroke-miterlimit:10;}
	.st19{fill:none;stroke:url(#SVGID_20_);stroke-width:4;stroke-miterlimit:10;}
	.st20{fill:none;stroke:url(#SVGID_21_);stroke-width:4;stroke-miterlimit:10;}
	.st21{fill:none;stroke:url(#SVGID_22_);stroke-width:4;stroke-miterlimit:10;}
	.st22{fill:none;stroke:url(#SVGID_23_);stroke-width:4;stroke-miterlimit:10;}
	.st23{fill:none;stroke:url(#SVGID_24_);stroke-width:4;stroke-miterlimit:10;}
	.st24{fill:none;stroke:url(#SVGID_25_);stroke-width:4;stroke-miterlimit:10;}
	.st25{fill:none;stroke:url(#SVGID_26_);stroke-width:4;stroke-miterlimit:10;}
	.st26{fill:none;stroke:url(#SVGID_27_);stroke-width:4;stroke-miterlimit:10;}
	.st27{fill:none;stroke:url(#SVGID_28_);stroke-width:4;stroke-miterlimit:10;}
	.st28{fill:none;stroke:url(#SVGID_29_);stroke-width:4;stroke-miterlimit:10;}
	.st29{fill:none;stroke:url(#SVGID_30_);stroke-width:4;stroke-miterlimit:10;}
	.st30{fill:none;stroke:url(#SVGID_31_);stroke-width:4;stroke-miterlimit:10;}
	.st31{fill:none;stroke:url(#SVGID_32_);stroke-width:4;stroke-miterlimit:10;}
	.st32{fill:none;stroke:url(#SVGID_33_);stroke-width:4;stroke-miterlimit:10;}
	.st33{fill:none;stroke:url(#SVGID_34_);stroke-width:4;stroke-miterlimit:10;}
	.st34{fill:none;stroke:url(#SVGID_35_);stroke-width:4;stroke-miterlimit:10;}
</style>
<g>
	<g>
		
			<linearGradient id="SVGID_1_" gradientUnits="userSpaceOnUse" x1="119.9483" y1="491.6667" x2="803.0599" y2="491.6667" gradientTransform="matrix(0.138 -1.2053 1.2053 0.138 -202.2991 978.8944)">
			<stop  offset="0" style="stop-color:#000D17"/>
			<stop  offset="0.1387" style="stop-color:#050D1B"/>
			<stop  offset="0.3092" style="stop-color:#140B28"/>
			<stop  offset="0.4965" style="stop-color:#2D093D"/>
			<stop  offset="0.6958" style="stop-color:#50065A"/>
			<stop  offset="0.9024" style="stop-color:#7C027E"/>
			<stop  offset="1" style="stop-color:#940092"/>
		</linearGradient>
		<path class="st0" d="M563.59,434.62c377.03,43.16,244.08-733.44,148.78,99.11S912.73,650.86,535.7,607.7
			S38.86,1257.04,134.16,424.49S186.55,391.46,563.59,434.62z"/>
	</g>
	<g>
		
			<linearGradient id="SVGID_2_" gradientUnits="userSpaceOnUse" x1="119.9483" y1="491.6667" x2="803.0599" y2="491.6667" gradientTransform="matrix(-0.1884 1.1915 -1.1915 -0.1884 1134.3538 43.0442)">
			<stop  offset="0" style="stop-color:#000D17"/>
			<stop  offset="0.1387" style="stop-color:#050D1B"/>
			<stop  offset="0.3092" style="stop-color:#140B28"/>
			<stop  offset="0.4965" style="stop-color:#2D093D"/>
			<stop  offset="0.6958" style="stop-color:#50065A"/>
			<stop  offset="0.9024" style="stop-color:#7C027E"/>
			<stop  offset="1" style="stop-color:#940092"/>
		</linearGradient>
		<path class="st1" d="M350.33,551.11c-372.71-58.94-273.72,718.22-143.58-104.8S12.69,321.43,385.4,380.36
			s521.23-623.9,391.09,199.11S723.04,610.05,350.33,551.11z"/>
	</g>
	<g>
		
			<linearGradient id="SVGID_3_" gradientUnits="userSpaceOnUse" x1="119.9483" y1="491.6667" x2="803.0599" y2="491.6667" gradientTransform="matrix(0.2379 -1.1757 1.1757 0.2379 -233.3626 915.8057)">
			<stop  offset="0" style="stop-color:#000D17"/>
			<stop  offset="0.1387" style="stop-color:#050D1B"/>
			<stop  offset="0.3092" style="stop-color:#140B28"/>
			<stop  offset="0.4965" style="stop-color:#2D093D"/>
			<stop  offset="0.6958" style="stop-color:#50065A"/>
			<stop  offset="0.9024" style="stop-color:#7C027E"/>
			<stop  offset="1" style="stop-color:#940092"/>
		</linearGradient>
		<path class="st2" d="M567.15,444.47c367.75,74.42,302.51-701.84,138.17,110.22s187.47,132.33-180.29,57.91
			s-544.37,597.6-380.04-214.46S199.39,370.05,567.15,444.47z"/>
	</g>
	<g>
		
			<linearGradient id="SVGID_4_" gradientUnits="userSpaceOnUse" x1="119.9483" y1="491.6667" x2="803.0599" y2="491.6667" gradientTransform="matrix(-0.2864 1.1578 -1.1578 -0.2864 1162.5258 107.0408)">
			<stop  offset="0" style="stop-color:#000D17"/>
			<stop  offset="0.1387" style="stop-color:#050D1B"/>
			<stop  offset="0.3092" style="stop-color:#140B28"/>
			<stop  offset="0.4965" style="stop-color:#2D093D"/>
			<stop  offset="0.6958" style="stop-color:#50065A"/>
			<stop  offset="0.9024" style="stop-color:#7C027E"/>
			<stop  offset="1" style="stop-color:#940092"/>
		</linearGradient>
		<path class="st3" d="M347.21,541.18C-14.95,451.58,16.8,1225.51,214.65,425.8s-180.6-139.45,181.57-49.85
			s566.24-570.48,368.4,229.23S709.37,630.77,347.21,541.18z"/>
	</g>
	<g>
		
			<linearGradient id="SVGID_5_" gradientUnits="userSpaceOnUse" x1="119.9483" y1="491.6667" x2="803.0599" y2="491.6667" gradientTransform="matrix(0.3339 -1.138 1.138 0.3339 -258.6236 851.0304)">
			<stop  offset="0" style="stop-color:#000D17"/>
			<stop  offset="0.1387" style="stop-color:#050D1B"/>
			<stop  offset="0.3092" style="stop-color:#140B28"/>
			<stop  offset="0.4965" style="stop-color:#2D093D"/>
			<stop  offset="0.6958" style="stop-color:#50065A"/>
			<stop  offset="0.9024" style="stop-color:#7C027E"/>
			<stop  offset="1" style="stop-color:#940092"/>
		</linearGradient>
		<path class="st4" d="M569.82,454.48C925.78,558.91,927.2-211.28,696.6,574.74s173.47,146.22-182.49,41.79
			s-586.82,542.61-356.21-243.42S213.86,350.04,569.82,454.48z"/>
	</g>
	<g>
		
			<linearGradient id="SVGID_6_" gradientUnits="userSpaceOnUse" x1="119.9483" y1="491.6667" x2="803.0599" y2="491.6667" gradientTransform="matrix(-0.3801 1.1163 -1.1163 -0.3801 1184.8616 172.4658)">
			<stop  offset="0" style="stop-color:#000D17"/>
			<stop  offset="0.1387" style="stop-color:#050D1B"/>
			<stop  offset="0.3092" style="stop-color:#140B28"/>
			<stop  offset="0.4965" style="stop-color:#2D093D"/>
			<stop  offset="0.6958" style="stop-color:#50065A"/>
			<stop  offset="0.9024" style="stop-color:#7C027E"/>
			<stop  offset="1" style="stop-color:#940092"/>
		</linearGradient>
		<path class="st5" d="M344.98,531.13C-4.19,412.22-38.4,1177.28,224.16,406.25S58.06,253.6,407.23,372.51
			s606.06-514.05,343.5,256.99S694.15,650.03,344.98,531.13z"/>
	</g>
	<g>
		
			<linearGradient id="SVGID_7_" gradientUnits="userSpaceOnUse" x1="119.9483" y1="491.6667" x2="803.0599" y2="491.6667" gradientTransform="matrix(0.4252 -1.0927 1.0927 0.4252 -278.0258 785.0846)">
			<stop  offset="0" style="stop-color:#000D17"/>
			<stop  offset="0.1387" style="stop-color:#050D1B"/>
			<stop  offset="0.3092" style="stop-color:#140B28"/>
			<stop  offset="0.4965" style="stop-color:#2D093D"/>
			<stop  offset="0.6958" style="stop-color:#50065A"/>
			<stop  offset="0.9024" style="stop-color:#7C027E"/>
			<stop  offset="1" style="stop-color:#940092"/>
		</linearGradient>
		<path class="st6" d="M571.6,464.56c341.81,132.99,408.38-625.57,114.71,129.2S844.81,752.47,503,619.48
			s-623.97,484.85-330.3-269.92S229.79,331.56,571.6,464.56z"/>
	</g>
	<g>
		
			<linearGradient id="SVGID_8_" gradientUnits="userSpaceOnUse" x1="119.9483" y1="491.6667" x2="803.0599" y2="491.6667" gradientTransform="matrix(-0.4689 1.0674 -1.0674 -0.4689 1201.3274 238.804)">
			<stop  offset="0" style="stop-color:#000D17"/>
			<stop  offset="0.1387" style="stop-color:#050D1B"/>
			<stop  offset="0.3092" style="stop-color:#140B28"/>
			<stop  offset="0.4965" style="stop-color:#2D093D"/>
			<stop  offset="0.6958" style="stop-color:#50065A"/>
			<stop  offset="0.9024" style="stop-color:#7C027E"/>
			<stop  offset="1" style="stop-color:#940092"/>
		</linearGradient>
		<path class="st7" d="M343.64,521.04C9.74,374.36-88.7,1125.1,235.19,387.8s-150.7-164.42,183.2-17.75S1058.9-85.03,735.01,652.27
			S677.53,667.71,343.64,521.04z"/>
	</g>
	<g>
		
			<linearGradient id="SVGID_9_" gradientUnits="userSpaceOnUse" x1="119.9483" y1="491.6667" x2="803.0599" y2="491.6667" gradientTransform="matrix(0.5113 -1.0404 1.0404 0.5113 -291.5579 718.4816)">
			<stop  offset="0" style="stop-color:#000D17"/>
			<stop  offset="0.1387" style="stop-color:#050D1B"/>
			<stop  offset="0.3092" style="stop-color:#140B28"/>
			<stop  offset="0.4965" style="stop-color:#2D093D"/>
			<stop  offset="0.6958" style="stop-color:#50065A"/>
			<stop  offset="0.9024" style="stop-color:#7C027E"/>
			<stop  offset="1" style="stop-color:#940092"/>
		</linearGradient>
		<path class="st8" d="M572.51,474.64c325.45,159.93,455.22-581.67,102.06,136.98s142.71,169.76-182.75,9.83
			S-163.86,1046.25,189.3,327.6S247.06,314.7,572.51,474.64z"/>
	</g>
	<g>
		
			<linearGradient id="SVGID_10_" gradientUnits="userSpaceOnUse" x1="119.9483" y1="491.6667" x2="803.0599" y2="491.6667" gradientTransform="matrix(-0.5522 1.0118 -1.0118 -0.5522 1211.9337 305.545)">
			<stop  offset="0" style="stop-color:#000D17"/>
			<stop  offset="0.1387" style="stop-color:#050D1B"/>
			<stop  offset="0.3092" style="stop-color:#140B28"/>
			<stop  offset="0.4965" style="stop-color:#2D093D"/>
			<stop  offset="0.6958" style="stop-color:#50065A"/>
			<stop  offset="0.9024" style="stop-color:#7C027E"/>
			<stop  offset="1" style="stop-color:#940092"/>
		</linearGradient>
		<path class="st9" d="M343.17,510.98c-316.5-172.74-477,558.46-95.56-140.42s-134.54-174.72,181.96-1.98
			s669.46-394.09,288.02,304.8S659.67,683.72,343.17,510.98z"/>
	</g>
	<g>
		
			<linearGradient id="SVGID_11_" gradientUnits="userSpaceOnUse" x1="119.9483" y1="491.6667" x2="803.0599" y2="491.6667" gradientTransform="matrix(0.5917 -0.9816 0.9816 0.5917 -299.2517 651.728)">
			<stop  offset="0" style="stop-color:#000D17"/>
			<stop  offset="0.1387" style="stop-color:#050D1B"/>
			<stop  offset="0.3092" style="stop-color:#140B28"/>
			<stop  offset="0.4965" style="stop-color:#2D093D"/>
			<stop  offset="0.6958" style="stop-color:#50065A"/>
			<stop  offset="0.9024" style="stop-color:#7C027E"/>
			<stop  offset="1" style="stop-color:#940092"/>
		</linearGradient>
		<path class="st10" d="M572.55,484.64c307.06,185.09,497.65-534.47,88.95,143.57s126.21,179.3-180.85-5.78
			S-201.2,985.41,207.51,307.37S265.49,299.56,572.55,484.64z"/>
	</g>
	<g>
		
			<linearGradient id="SVGID_12_" gradientUnits="userSpaceOnUse" x1="119.9483" y1="491.6667" x2="803.0599" y2="491.6667" gradientTransform="matrix(-0.6296 0.95 -0.95 -0.6296 1216.7338 372.187)">
			<stop  offset="0" style="stop-color:#000D17"/>
			<stop  offset="0.1387" style="stop-color:#050D1B"/>
			<stop  offset="0.3092" style="stop-color:#140B28"/>
			<stop  offset="0.4965" style="stop-color:#2D093D"/>
			<stop  offset="0.6958" style="stop-color:#50065A"/>
			<stop  offset="0.9024" style="stop-color:#7C027E"/>
			<stop  offset="1" style="stop-color:#940092"/>
		</linearGradient>
		<path class="st11" d="M343.56,501.04C46.4,304.09-173.58,1010.79,261.31,354.63s-117.74-183.5,179.41,13.45
			s692.81-331.55,257.92,324.62S640.71,697.99,343.56,501.04z"/>
	</g>
	<g>
		
			<linearGradient id="SVGID_13_" gradientUnits="userSpaceOnUse" x1="119.9483" y1="491.6667" x2="803.0599" y2="491.6667" gradientTransform="matrix(0.6659 -0.9169 0.9169 0.6659 -301.1818 585.3201)">
			<stop  offset="0" style="stop-color:#000D17"/>
			<stop  offset="0.1387" style="stop-color:#050D1B"/>
			<stop  offset="0.3092" style="stop-color:#140B28"/>
			<stop  offset="0.4965" style="stop-color:#2D093D"/>
			<stop  offset="0.6958" style="stop-color:#50065A"/>
			<stop  offset="0.9024" style="stop-color:#7C027E"/>
			<stop  offset="1" style="stop-color:#940092"/>
		</linearGradient>
		<path class="st12" d="M571.74,494.51c286.81,208.31,535.44-484.37,75.47,148.95s109.15,187.31-177.66-21
			s-702.38,299.86-242.4-333.47S284.93,286.2,571.74,494.51z"/>
	</g>
	<g>
		
			<linearGradient id="SVGID_14_" gradientUnits="userSpaceOnUse" x1="119.9483" y1="491.6667" x2="803.0599" y2="491.6667" gradientTransform="matrix(-0.7006 0.8825 -0.8825 -0.7006 1215.8228 438.2401)">
			<stop  offset="0" style="stop-color:#000D17"/>
			<stop  offset="0.1387" style="stop-color:#050D1B"/>
			<stop  offset="0.3092" style="stop-color:#140B28"/>
			<stop  offset="0.4965" style="stop-color:#2D093D"/>
			<stop  offset="0.6958" style="stop-color:#50065A"/>
			<stop  offset="0.9024" style="stop-color:#7C027E"/>
			<stop  offset="1" style="stop-color:#940092"/>
		</linearGradient>
		<path class="st13" d="M344.78,491.28C68.73,272.13-207.77,949.66,276.15,340.09s-100.46-190.72,175.6,28.43
			s710.53-267.97,226.6,341.6S620.83,710.43,344.78,491.28z"/>
	</g>
	<g>
		
			<linearGradient id="SVGID_15_" gradientUnits="userSpaceOnUse" x1="119.9483" y1="491.6667" x2="803.0599" y2="491.6667" gradientTransform="matrix(0.7336 -0.8469 0.8469 0.7336 -297.4635 519.7405)">
			<stop  offset="0" style="stop-color:#000D17"/>
			<stop  offset="0.1387" style="stop-color:#050D1B"/>
			<stop  offset="0.3092" style="stop-color:#140B28"/>
			<stop  offset="0.4965" style="stop-color:#2D093D"/>
			<stop  offset="0.6958" style="stop-color:#50065A"/>
			<stop  offset="0.9024" style="stop-color:#7C027E"/>
			<stop  offset="1" style="stop-color:#940092"/>
		</linearGradient>
		<path class="st14" d="M570.11,504.15c264.9,229.47,568.44-431.83,61.74,153.11s91.67,193.75-173.23-35.72
			s-717.26,235.95-210.56-349S305.21,274.68,570.11,504.15z"/>
	</g>
	<g>
		
			<linearGradient id="SVGID_16_" gradientUnits="userSpaceOnUse" x1="119.9483" y1="491.6667" x2="803.0599" y2="491.6667" gradientTransform="matrix(-0.7648 0.81 -0.81 -0.7648 1209.3357 503.2299)">
			<stop  offset="0" style="stop-color:#000D17"/>
			<stop  offset="0.1387" style="stop-color:#050D1B"/>
			<stop  offset="0.3092" style="stop-color:#140B28"/>
			<stop  offset="0.4965" style="stop-color:#2D093D"/>
			<stop  offset="0.6958" style="stop-color:#50065A"/>
			<stop  offset="0.9024" style="stop-color:#7C027E"/>
			<stop  offset="1" style="stop-color:#940092"/>
		</linearGradient>
		<path class="st15" d="M346.81,481.77C93.43,242.53-236.28,886.54,292,327.03s-82.82-196.37,170.57,42.86
			s722.59-203.84,194.31,355.67S600.19,721,346.81,481.77z"/>
	</g>
	<g>
		
			<linearGradient id="SVGID_17_" gradientUnits="userSpaceOnUse" x1="119.9483" y1="491.6667" x2="803.0599" y2="491.6667" gradientTransform="matrix(0.7943 -0.7721 0.7721 0.7943 -288.2511 455.4547)">
			<stop  offset="0" style="stop-color:#000D17"/>
			<stop  offset="0.1387" style="stop-color:#050D1B"/>
			<stop  offset="0.3092" style="stop-color:#140B28"/>
			<stop  offset="0.4965" style="stop-color:#2D093D"/>
			<stop  offset="0.6958" style="stop-color:#50065A"/>
			<stop  offset="0.9024" style="stop-color:#7C027E"/>
			<stop  offset="1" style="stop-color:#940092"/>
		</linearGradient>
		<path class="st16" d="M567.68,513.51c241.53,248.46,596.49-377.28,47.86,156.05s73.91,198.61-167.62-49.85
			S-278.6,791.45,270.04,258.11S326.16,265.06,567.68,513.51z"/>
	</g>
	<g>
		
			<linearGradient id="SVGID_18_" gradientUnits="userSpaceOnUse" x1="119.9483" y1="491.6667" x2="803.0599" y2="491.6667" gradientTransform="matrix(-0.8219 0.7332 -0.7332 -0.8219 1197.4459 566.7002)">
			<stop  offset="0" style="stop-color:#000D17"/>
			<stop  offset="0.1387" style="stop-color:#050D1B"/>
			<stop  offset="0.3092" style="stop-color:#140B28"/>
			<stop  offset="0.4965" style="stop-color:#2D093D"/>
			<stop  offset="0.6958" style="stop-color:#50065A"/>
			<stop  offset="0.9024" style="stop-color:#7C027E"/>
			<stop  offset="1" style="stop-color:#940092"/>
		</linearGradient>
		<path class="st17" d="M349.62,472.57c-229.36-257.11-608.64,349.39-40.9-157.06s-64.96-200.45,164.39,56.66
			s729.05-139.65,161.31,366.8S578.97,729.68,349.62,472.57z"/>
	</g>
	<g>
		
			<linearGradient id="SVGID_19_" gradientUnits="userSpaceOnUse" x1="119.9483" y1="491.6667" x2="803.0599" y2="491.6667" gradientTransform="matrix(0.8478 -0.6934 0.6934 0.8478 -273.7363 392.9084)">
			<stop  offset="0" style="stop-color:#000D17"/>
			<stop  offset="0.1387" style="stop-color:#050D1B"/>
			<stop  offset="0.3092" style="stop-color:#140B28"/>
			<stop  offset="0.4965" style="stop-color:#2D093D"/>
			<stop  offset="0.6958" style="stop-color:#50065A"/>
			<stop  offset="0.9024" style="stop-color:#7C027E"/>
			<stop  offset="1" style="stop-color:#940092"/>
		</linearGradient>
		<path class="st18" d="M564.51,522.53c216.9,265.19,619.51-321.17,33.94,157.77s56,201.9-160.9-63.29s-730.2,107.68-144.63-371.26
			S347.61,257.35,564.51,522.53z"/>
	</g>
	<g>
		
			<linearGradient id="SVGID_20_" gradientUnits="userSpaceOnUse" x1="119.9483" y1="491.6667" x2="803.0599" y2="491.6667" gradientTransform="matrix(-0.8717 0.6527 -0.6527 -0.8717 1180.3627 628.2167)">
			<stop  offset="0" style="stop-color:#000D17"/>
			<stop  offset="0.1387" style="stop-color:#050D1B"/>
			<stop  offset="0.3092" style="stop-color:#140B28"/>
			<stop  offset="0.4965" style="stop-color:#2D093D"/>
			<stop  offset="0.6958" style="stop-color:#50065A"/>
			<stop  offset="0.9024" style="stop-color:#7C027E"/>
			<stop  offset="1" style="stop-color:#940092"/>
		</linearGradient>
		<path class="st19" d="M353.16,463.74c-204.17-272.68-629.12,292.67-27-158.18s-47.03-202.95,157.14,69.72
			s729.98-75.87,127.86,374.98S557.33,736.42,353.16,463.74z"/>
	</g>
	<g>
		
			<linearGradient id="SVGID_21_" gradientUnits="userSpaceOnUse" x1="119.9483" y1="491.6667" x2="803.0599" y2="491.6667" gradientTransform="matrix(0.8938 -0.6113 0.6113 0.8938 -254.1453 332.5244)">
			<stop  offset="0" style="stop-color:#000D17"/>
			<stop  offset="0.1387" style="stop-color:#050D1B"/>
			<stop  offset="0.3092" style="stop-color:#140B28"/>
			<stop  offset="0.4965" style="stop-color:#2D093D"/>
			<stop  offset="0.6958" style="stop-color:#50065A"/>
			<stop  offset="0.9024" style="stop-color:#7C027E"/>
			<stop  offset="1" style="stop-color:#940092"/>
		</linearGradient>
		<path class="st20" d="M560.61,531.15c191.22,279.58,637.44-263.95,20.08,158.29s38.08,203.62-153.14-75.96
			s-728.41,44.28-111.05-377.96S369.39,251.57,560.61,531.15z"/>
	</g>
	<g>
		
			<linearGradient id="SVGID_22_" gradientUnits="userSpaceOnUse" x1="119.9483" y1="491.6667" x2="803.0599" y2="491.6667" gradientTransform="matrix(-0.9139 0.5692 -0.5692 -0.9139 1158.3289 687.369)">
			<stop  offset="0" style="stop-color:#000D17"/>
			<stop  offset="0.1387" style="stop-color:#050D1B"/>
			<stop  offset="0.3092" style="stop-color:#140B28"/>
			<stop  offset="0.4965" style="stop-color:#2D093D"/>
			<stop  offset="0.6958" style="stop-color:#50065A"/>
			<stop  offset="0.9024" style="stop-color:#7C027E"/>
			<stop  offset="1" style="stop-color:#940092"/>
		</linearGradient>
		<path class="st21" d="M357.39,455.35c-178.05-285.88-644.49,235.06-13.21-158.1s-29.15-203.9,148.9,81.98s725.5-12.97,94.22,380.2
			S535.44,741.24,357.39,455.35z"/>
	</g>
	<g>
		
			<linearGradient id="SVGID_23_" gradientUnits="userSpaceOnUse" x1="119.9483" y1="491.6667" x2="803.0599" y2="491.6667" gradientTransform="matrix(0.9322 -0.5265 0.5265 0.9322 -229.737 274.6998)">
			<stop  offset="0" style="stop-color:#000D17"/>
			<stop  offset="0.1387" style="stop-color:#050D1B"/>
			<stop  offset="0.3092" style="stop-color:#140B28"/>
			<stop  offset="0.4965" style="stop-color:#2D093D"/>
			<stop  offset="0.6958" style="stop-color:#50065A"/>
			<stop  offset="0.9024" style="stop-color:#7C027E"/>
			<stop  offset="1" style="stop-color:#940092"/>
		</linearGradient>
		<path class="st22" d="M556.05,539.3c164.7,291.59,650.26-206.07,6.39,157.62s20.28,203.8-144.43-87.78s-721.28-18.02-77.41-381.71
			S391.34,247.72,556.05,539.3z"/>
	</g>
	<g>
		
			<linearGradient id="SVGID_24_" gradientUnits="userSpaceOnUse" x1="119.9483" y1="491.6667" x2="803.0599" y2="491.6667" gradientTransform="matrix(-0.9485 0.4834 -0.4834 -0.9485 1131.6183 743.7734)">
			<stop  offset="0" style="stop-color:#000D17"/>
			<stop  offset="0.1387" style="stop-color:#050D1B"/>
			<stop  offset="0.3092" style="stop-color:#140B28"/>
			<stop  offset="0.4965" style="stop-color:#2D093D"/>
			<stop  offset="0.6958" style="stop-color:#50065A"/>
			<stop  offset="0.9024" style="stop-color:#7C027E"/>
			<stop  offset="1" style="stop-color:#940092"/>
		</linearGradient>
		<path class="st23" d="M362.28,447.44c-151.2-296.68-654.76,177.01,0.37-156.86s-11.46-203.33,139.74,93.36
			s715.77,48.62,60.64,382.5S513.48,744.13,362.28,447.44z"/>
	</g>
	<g>
		
			<linearGradient id="SVGID_25_" gradientUnits="userSpaceOnUse" x1="119.9483" y1="491.6667" x2="803.0599" y2="491.6667" gradientTransform="matrix(0.9628 -0.4398 0.4398 0.9628 -200.7999 219.8042)">
			<stop  offset="0" style="stop-color:#000D17"/>
			<stop  offset="0.1387" style="stop-color:#050D1B"/>
			<stop  offset="0.3092" style="stop-color:#140B28"/>
			<stop  offset="0.4965" style="stop-color:#2D093D"/>
			<stop  offset="0.6958" style="stop-color:#50065A"/>
			<stop  offset="0.9024" style="stop-color:#7C027E"/>
			<stop  offset="1" style="stop-color:#940092"/>
		</linearGradient>
		<path class="st24" d="M550.86,546.95c137.57,301.17,657.99-147.96-7.05,155.81s2.73,202.48-134.84-98.69
			s-708.99-78.79-43.95-382.56S413.29,245.78,550.86,546.95z"/>
	</g>
	<g>
		
			<linearGradient id="SVGID_26_" gradientUnits="userSpaceOnUse" x1="119.9483" y1="491.6667" x2="803.0599" y2="491.6667" gradientTransform="matrix(-0.9752 0.3959 -0.3959 -0.9752 1100.5334 797.0754)">
			<stop  offset="0" style="stop-color:#000D17"/>
			<stop  offset="0.1387" style="stop-color:#050D1B"/>
			<stop  offset="0.3092" style="stop-color:#140B28"/>
			<stop  offset="0.4965" style="stop-color:#2D093D"/>
			<stop  offset="0.6958" style="stop-color:#50065A"/>
			<stop  offset="0.9024" style="stop-color:#7C027E"/>
			<stop  offset="1" style="stop-color:#940092"/>
		</linearGradient>
		<path class="st25" d="M367.76,440.07C243.92,135.02-292.2,559.03,381.39,285.58s5.91-201.26,129.75,103.79
			s700.97,108.47,27.37,381.92S491.59,745.11,367.76,440.07z"/>
	</g>
	<g>
		
			<linearGradient id="SVGID_27_" gradientUnits="userSpaceOnUse" x1="119.9483" y1="491.6667" x2="803.0599" y2="491.6667" gradientTransform="matrix(0.9856 -0.3517 0.3517 0.9856 -167.6495 168.177)">
			<stop  offset="0" style="stop-color:#000D17"/>
			<stop  offset="0.1387" style="stop-color:#050D1B"/>
			<stop  offset="0.3092" style="stop-color:#140B28"/>
			<stop  offset="0.4965" style="stop-color:#2D093D"/>
			<stop  offset="0.6958" style="stop-color:#50065A"/>
			<stop  offset="0.9024" style="stop-color:#7C027E"/>
			<stop  offset="1" style="stop-color:#940092"/>
		</linearGradient>
		<path class="st26" d="M545.1,554.05c110.03,308.31,660.68-90.07-20.13,152.89S510.52,906.62,400.5,598.31
			s-691.73-137.61-10.92-380.57S435.07,245.73,545.1,554.05z"/>
	</g>
	<g>
		
			<linearGradient id="SVGID_28_" gradientUnits="userSpaceOnUse" x1="119.9483" y1="491.6667" x2="803.0599" y2="491.6667" gradientTransform="matrix(-0.9941 0.3074 -0.3074 -0.9941 1065.4023 846.9509)">
			<stop  offset="0" style="stop-color:#000D17"/>
			<stop  offset="0.1387" style="stop-color:#050D1B"/>
			<stop  offset="0.3092" style="stop-color:#140B28"/>
			<stop  offset="0.4965" style="stop-color:#2D093D"/>
			<stop  offset="0.6958" style="stop-color:#50065A"/>
			<stop  offset="0.9024" style="stop-color:#7C027E"/>
			<stop  offset="1" style="stop-color:#940092"/>
		</linearGradient>
		<path class="st27" d="M373.78,433.26c-96.17-310.97-660.17,61.34,26.51-151.03s22.86-197.75,119.03,113.22
			s681.32,166.16-5.36,378.53S469.95,744.23,373.78,433.26z"/>
	</g>
	<g>
		
			<linearGradient id="SVGID_29_" gradientUnits="userSpaceOnUse" x1="119.9483" y1="491.6667" x2="803.0599" y2="491.6667" gradientTransform="matrix(1.0007 -0.2631 0.2631 1.0007 -130.6252 120.1259)">
			<stop  offset="0" style="stop-color:#000D17"/>
			<stop  offset="0.1387" style="stop-color:#050D1B"/>
			<stop  offset="0.3092" style="stop-color:#140B28"/>
			<stop  offset="0.4965" style="stop-color:#2D093D"/>
			<stop  offset="0.6958" style="stop-color:#50065A"/>
			<stop  offset="0.9024" style="stop-color:#7C027E"/>
			<stop  offset="1" style="stop-color:#940092"/>
		</linearGradient>
		<path class="st28" d="M538.83,560.55c82.29,313.02,658.44-32.82-32.77,148.9s-31.13,195.48-113.42-117.54
			s-669.76-194.09,21.45-375.81S456.53,247.53,538.83,560.55z"/>
	</g>
	<g>
		
			<linearGradient id="SVGID_30_" gradientUnits="userSpaceOnUse" x1="119.9483" y1="491.6667" x2="803.0599" y2="491.6667" gradientTransform="matrix(-1.0053 0.2187 -0.2187 -1.0053 1026.5751 893.1088)">
			<stop  offset="0" style="stop-color:#000D17"/>
			<stop  offset="0.1387" style="stop-color:#050D1B"/>
			<stop  offset="0.3092" style="stop-color:#140B28"/>
			<stop  offset="0.4965" style="stop-color:#2D093D"/>
			<stop  offset="0.6958" style="stop-color:#50065A"/>
			<stop  offset="0.9024" style="stop-color:#7C027E"/>
			<stop  offset="1" style="stop-color:#940092"/>
		</linearGradient>
		<path class="st29" d="M380.29,427.07c-68.42-314.47-655.5,4.56,38.89-146.53s39.25-192.87,107.67,121.6
			s657.09,221.34-37.31,372.42S448.71,741.54,380.29,427.07z"/>
	</g>
	<g>
		
			<linearGradient id="SVGID_31_" gradientUnits="userSpaceOnUse" x1="119.9483" y1="491.6667" x2="803.0599" y2="491.6667" gradientTransform="matrix(1.008 -0.1745 0.1745 1.008 -90.0876 75.9255)">
			<stop  offset="0" style="stop-color:#000D17"/>
			<stop  offset="0.1387" style="stop-color:#050D1B"/>
			<stop  offset="0.3092" style="stop-color:#140B28"/>
			<stop  offset="0.4965" style="stop-color:#2D093D"/>
			<stop  offset="0.6958" style="stop-color:#50065A"/>
			<stop  offset="0.9024" style="stop-color:#7C027E"/>
			<stop  offset="1" style="stop-color:#940092"/>
		</linearGradient>
		<path class="st30" d="M532.1,566.42c54.58,315.31,651.39,23.39-44.88,143.91s-47.21,189.93-101.78-125.38
			s-643.33-247.87,52.93-368.38S477.52,251.11,532.1,566.42z"/>
	</g>
	<g>
		
			<linearGradient id="SVGID_32_" gradientUnits="userSpaceOnUse" x1="119.9483" y1="491.6667" x2="803.0599" y2="491.6667" gradientTransform="matrix(-1.0088 0.1304 -0.1304 -1.0088 984.4216 935.2919)">
			<stop  offset="0" style="stop-color:#000D17"/>
			<stop  offset="0.1387" style="stop-color:#050D1B"/>
			<stop  offset="0.3092" style="stop-color:#140B28"/>
			<stop  offset="0.4965" style="stop-color:#2D093D"/>
			<stop  offset="0.6958" style="stop-color:#50065A"/>
			<stop  offset="0.9024" style="stop-color:#7C027E"/>
			<stop  offset="1" style="stop-color:#940092"/>
		</linearGradient>
		<path class="st31" d="M387.22,421.52c-40.79-315.56-646.1-50.98,50.71-141.05s54.99-186.67,95.77,128.9
			s628.54,273.64-68.27,363.71S428.01,737.08,387.22,421.52z"/>
	</g>
	<g>
		
			<linearGradient id="SVGID_33_" gradientUnits="userSpaceOnUse" x1="119.9483" y1="491.6667" x2="803.0599" y2="491.6667" gradientTransform="matrix(1.0077 -0.0866 0.0866 1.0077 -46.4148 35.8154)">
			<stop  offset="0" style="stop-color:#000D17"/>
			<stop  offset="0.1387" style="stop-color:#050D1B"/>
			<stop  offset="0.3092" style="stop-color:#140B28"/>
			<stop  offset="0.4965" style="stop-color:#2D093D"/>
			<stop  offset="0.6958" style="stop-color:#50065A"/>
			<stop  offset="0.9024" style="stop-color:#7C027E"/>
			<stop  offset="1" style="stop-color:#940092"/>
		</linearGradient>
		<path class="st32" d="M524.97,571.64c27.08,315.22,639.68,78.16-56.38,137.96s-62.57,183.1-89.65-132.13
			c-27.08-315.22-612.75-298.61,83.31-358.4S497.9,256.42,524.97,571.64z"/>
	</g>
	<g>
		
			<linearGradient id="SVGID_34_" gradientUnits="userSpaceOnUse" x1="119.9483" y1="491.6667" x2="803.0599" y2="491.6667" gradientTransform="matrix(-1.0048 0.0431 -0.0431 -1.0048 939.3279 973.2778)">
			<stop  offset="0" style="stop-color:#000D17"/>
			<stop  offset="0.1387" style="stop-color:#050D1B"/>
			<stop  offset="0.3092" style="stop-color:#140B28"/>
			<stop  offset="0.4965" style="stop-color:#2D093D"/>
			<stop  offset="0.6958" style="stop-color:#50065A"/>
			<stop  offset="0.9024" style="stop-color:#7C027E"/>
			<stop  offset="1" style="stop-color:#940092"/>
		</linearGradient>
		<path class="st33" d="M394.52,416.64c-13.48-314.3-632.14-104.89,61.89-134.65s69.96-179.23,83.44,135.08s596,322.74-98.03,352.5
			S408,730.94,394.52,416.64z"/>
	</g>
	<g>
		<linearGradient id="SVGID_35_" gradientUnits="userSpaceOnUse" x1="119.9483" y1="491.6667" x2="803.0599" y2="491.6667">
			<stop  offset="0" style="stop-color:#000D17"/>
			<stop  offset="0.1387" style="stop-color:#050D1B"/>
			<stop  offset="0.3092" style="stop-color:#140B28"/>
			<stop  offset="0.4965" style="stop-color:#2D093D"/>
			<stop  offset="0.6958" style="stop-color:#50065A"/>
			<stop  offset="0.9024" style="stop-color:#7C027E"/>
			<stop  offset="1" style="stop-color:#940092"/>
		</linearGradient>
		<path class="st34" d="M517.51,576.18c0,312.81,623.51,131.13-67.22,131.13s-77.13,175.07-77.13-137.74s-578.33-346,112.4-346
			S517.51,263.37,517.51,576.18z"/>
	</g>
</g>
</svg>
